<?xml version="1.0" standalone="no"?>
<!DOCTYPE svg PUBLIC "-//W3C//DTD SVG 20010904//EN"
 "http://www.w3.org/TR/2001/REC-SVG-20010904/DTD/svg10.dtd">
<svg version="1.0" xmlns="http://www.w3.org/2000/svg"
 width="1024.000000pt" height="1024.000000pt" viewBox="0 0 1024.000000 1024.000000"
 preserveAspectRatio="xMidYMid meet">

<g transform="translate(0.000000,1024.000000) scale(0.100000,-0.100000)"
fill="#000000" stroke="none">
<path d="M5155 9029 c-268 -28 -589 -161 -820 -338 -104 -80 -192 -169 -273
-279 -148 -200 -238 -387 -277 -580 -80 -392 -45 -722 109 -1047 145 -305 449
-649 879 -993 133 -106 205 -159 416 -304 128 -88 144 -84 374 89 335 251 544
431 772 664 190 194 296 335 380 504 113 226 156 425 158 740 2 192 1 205 -30
341 -48 210 -103 335 -234 534 -188 284 -465 491 -801 599 -227 73 -423 94
-653 70z m405 -174 c198 -26 379 -102 575 -241 135 -95 240 -200 324 -323 61
-90 138 -241 123 -241 -4 0 -2 -4 4 -8 12 -8 46 -95 42 -108 -1 -5 3 -19 10
-30 13 -24 7 -34 -20 -34 -10 0 -18 -3 -18 -8 0 -4 -18 -6 -40 -4 -44 4 -51
-6 -20 -28 11 -8 20 -18 20 -22 0 -4 -9 -8 -20 -8 -12 0 -20 -7 -20 -16 0 -9
-9 -18 -20 -21 -11 -3 -20 -12 -20 -19 0 -8 -8 -18 -17 -21 -10 -4 -25 -15
-34 -24 -11 -13 -19 -15 -26 -8 -8 8 -22 7 -47 -2 -27 -10 -36 -19 -36 -36 0
-14 -6 -23 -15 -23 -19 0 -52 -33 -57 -57 -2 -10 -14 32 -26 92 -27 139 -56
213 -124 317 -68 104 -153 191 -253 258 -134 91 -253 132 -435 151 -94 10
-119 9 -228 -10 -223 -38 -391 -126 -529 -277 -141 -154 -195 -263 -245 -489
-22 -98 -24 -121 -16 -214 10 -119 37 -210 102 -339 80 -159 174 -263 329
-365 107 -70 158 -90 331 -132 79 -19 164 -46 189 -59 24 -14 47 -22 51 -19 9
10 7 33 -4 33 -5 0 -6 -7 -3 -17 4 -10 2 -14 -5 -9 -6 3 -10 15 -9 25 1 15 15
21 72 30 235 39 447 161 593 343 88 108 132 197 172 346 l28 107 2 -65 c1 -36
4 -59 7 -52 2 6 11 12 18 12 18 0 28 -65 14 -92 -9 -16 -9 -23 0 -26 6 -2 11
-12 11 -23 0 -10 6 -19 14 -19 7 0 16 -11 18 -25 4 -17 1 -25 -8 -25 -8 0 -14
5 -14 10 0 6 -5 10 -11 10 -8 0 -8 -5 1 -15 10 -12 10 -18 0 -30 -9 -10 -9
-15 -1 -15 6 0 11 5 11 10 0 6 6 10 14 10 9 0 12 -8 8 -25 -3 -16 -11 -25 -23
-25 -15 0 -19 -7 -19 -40 0 -22 -4 -40 -10 -40 -5 0 -10 -13 -10 -29 0 -50
-12 -91 -27 -91 -9 0 -14 -9 -12 -27 4 -50 0 -63 -20 -63 -11 0 -22 6 -25 13
-3 6 -3 2 0 -11 4 -15 0 -24 -10 -28 -9 -3 -16 -15 -16 -26 0 -11 -5 -28 -10
-39 -8 -15 -7 -19 5 -19 8 0 15 8 16 18 0 9 3 12 5 6 8 -18 -14 -64 -31 -64
-22 0 -18 -30 7 -57 17 -18 18 -23 6 -23 -9 0 -18 -12 -21 -30 -4 -18 -13 -30
-22 -30 -8 0 -15 -2 -15 -4 0 -2 -3 -11 -6 -20 -4 -11 -1 -16 10 -16 10 0 19
-11 23 -30 3 -18 12 -30 21 -30 22 0 -15 -36 -194 -193 -288 -251 -462 -389
-478 -380 -6 3 -8 3 -4 -2 4 -4 -24 -32 -63 -61 l-71 -53 -39 14 c-70 25 -220
134 -419 304 -353 303 -556 506 -686 686 -93 129 -197 344 -235 485 -30 110
-32 126 -36 343 -5 219 -4 232 22 350 43 193 108 343 228 522 57 85 248 272
341 334 162 109 372 198 536 226 101 17 391 17 520 0z m-130 -626 c171 -21
319 -96 452 -230 166 -167 230 -406 184 -690 -45 -278 -238 -498 -516 -591
-85 -29 -107 -32 -215 -32 -94 -1 -136 4 -195 21 -114 33 -207 78 -289 141
-129 98 -211 215 -267 377 -24 70 -28 99 -32 236 -3 122 -1 167 11 205 53 170
83 224 180 327 26 28 47 54 47 59 0 4 7 8 15 8 8 0 32 15 52 34 43 38 70 53
163 89 135 54 250 66 410 46z m1214 -688 c76 -13 101 -67 51 -116 -24 -25 -26
-25 -209 -25 -125 0 -187 4 -192 11 -4 6 -10 27 -14 45 -13 59 10 75 116 84
125 10 191 10 248 1z m-314 -391 c0 -5 -4 -10 -10 -10 -5 0 -10 5 -10 10 0 6
5 10 10 10 6 0 10 -4 10 -10z m-134 -515 c-3 -8 0 -15 6 -15 19 0 -1 -14 -22
-15 -23 -2 -26 9 -7 30 16 19 31 19 23 0z m224 -69 c0 -2 -8 -10 -17 -17 -16
-13 -17 -12 -4 4 13 16 21 21 21 13z m-61 -76 c-13 -16 -25 -28 -27 -25 -5 5
37 55 45 55 2 0 -6 -13 -18 -30z m-49 -54 c0 -2 -7 -9 -15 -16 -13 -11 -14
-10 -9 4 5 14 24 23 24 12z m-130 -131 c-7 -9 -15 -13 -19 -10 -3 3 1 10 9 15
21 14 24 12 10 -5z"/>
<path d="M5376 8449 c-10 -6 -34 -9 -52 -6 -20 4 -32 2 -29 -4 9 -14 69 -11
91 6 22 17 17 19 -10 4z"/>
<path d="M4278 7393 c7 -3 16 -2 19 1 4 3 -2 6 -13 5 -11 0 -14 -3 -6 -6z"/>
<path d="M6221 7214 c0 -11 3 -14 6 -6 3 7 2 16 -1 19 -3 4 -6 -2 -5 -13z"/>
<path d="M6220 6820 c0 -11 5 -20 10 -20 6 0 10 9 10 20 0 11 -4 20 -10 20 -5
0 -10 -9 -10 -20z"/>
<path d="M6180 6735 c-10 -12 -10 -15 4 -15 9 0 16 7 16 15 0 8 -2 15 -4 15
-2 0 -9 -7 -16 -15z"/>
<path d="M6050 6609 c0 -5 5 -7 10 -4 6 3 10 8 10 11 0 2 -4 4 -10 4 -5 0 -10
-5 -10 -11z"/>
<path d="M5252 6440 c0 -14 2 -19 5 -12 2 6 2 18 0 25 -3 6 -5 1 -5 -13z"/>
<path d="M5401 6414 c0 -11 3 -14 6 -6 3 7 2 16 -1 19 -3 4 -6 -2 -5 -13z"/>
<path d="M5391 6118 c0 -135 -4 -254 -8 -264 -6 -15 -2 -15 25 5 29 20 32 27
32 76 0 34 -5 59 -15 69 -12 11 -15 45 -16 158 -1 79 -5 157 -9 173 -4 17 -8
-81 -9 -217z"/>
<path d="M6040 6271 c0 -11 26 -22 34 -14 12 12 5 23 -14 23 -11 0 -20 -4 -20
-9z"/>
<path d="M5243 6135 c0 -44 2 -61 4 -37 2 23 2 59 0 80 -2 20 -4 1 -4 -43z"/>
<path d="M5243 5965 c0 -44 2 -61 4 -37 2 23 2 59 0 80 -2 20 -4 1 -4 -43z"/>
<path d="M5250 5871 c0 -6 4 -13 10 -16 6 -3 7 1 4 9 -7 18 -14 21 -14 7z"/>
<path d="M5212 7925 c-59 -14 -97 -31 -126 -57 -10 -10 -24 -15 -30 -11 -6 3
-1 -4 12 -16 14 -14 22 -34 22 -56 0 -27 4 -35 19 -35 26 0 85 21 93 34 12 18
177 20 239 2 69 -20 135 -67 141 -101 3 -14 1 -25 -3 -25 -5 0 -9 5 -9 10 0 6
-7 6 -19 -2 -16 -10 -25 -7 -56 21 -36 31 -37 32 -54 12 -13 -15 -21 -17 -36
-8 -11 5 -22 13 -25 16 -10 12 -169 43 -181 35 -5 -3 0 -17 12 -32 28 -36 24
-116 -8 -152 -13 -14 -23 -30 -23 -37 0 -9 -12 -8 -45 4 -25 8 -45 19 -45 25
0 5 -4 7 -8 4 -5 -3 -21 7 -35 22 -21 22 -27 41 -33 100 -4 50 -12 76 -23 83
-11 7 -12 12 -4 15 7 3 9 12 6 21 -4 11 -2 14 5 9 7 -4 12 -2 12 3 0 16 -16
13 -30 -4 -7 -8 -10 -15 -6 -15 3 0 -6 -13 -20 -30 -23 -25 -27 -40 -29 -102
-2 -40 -4 -79 -4 -86 -1 -7 -5 -11 -10 -8 -13 8 -29 -15 -34 -49 -3 -21 -4
-16 -6 18 0 27 -5 46 -10 42 -17 -10 -23 -112 -11 -183 36 -218 200 -366 440
-398 53 -7 174 23 250 61 50 26 132 102 175 164 68 99 91 249 56 374 -25 91
-49 132 -121 205 -66 66 -152 110 -250 128 -91 16 -119 16 -188 -1z m-162
-361 c0 -2 -7 -4 -15 -4 -8 0 -15 4 -15 10 0 5 7 7 15 4 8 -4 15 -8 15 -10z
m-70 -85 c0 -72 -21 -51 -25 24 -2 47 0 53 11 42 8 -8 14 -35 14 -66z m11
-111 c1 -7 1 -16 0 -20 0 -5 4 -8 10 -8 5 0 7 -5 3 -12 -5 -7 -2 -9 9 -5 11 4
15 0 14 -14 -3 -37 -23 -18 -47 45 -6 17 -6 26 0 26 6 0 11 -6 11 -12z m530
-81 c-6 -8 -8 -16 -5 -19 3 -3 -7 -15 -23 -25 -42 -30 -61 -37 -35 -15 12 11
27 22 33 24 5 2 11 13 12 26 0 12 8 22 15 22 11 0 12 -3 3 -13z m-361 -47 c0
-13 7 -20 20 -20 11 0 20 -4 20 -10 0 -5 9 -10 20 -10 11 0 20 -4 20 -10 0 -5
24 -10 53 -10 34 0 47 3 38 9 -10 6 -2 9 23 8 l37 -1 -38 -20 c-24 -13 -58
-20 -93 -20 -64 -1 -148 23 -128 36 9 5 8 8 -5 8 -27 0 -53 28 -38 43 8 8 11
7 11 -6 0 -23 12 -21 30 3 8 11 18 20 22 20 4 0 8 -9 8 -20z"/>
<path d="M4901 7677 c-8 -10 -7 -14 4 -14 8 0 15 6 15 14 0 7 -2 13 -4 13 -2
0 -9 -6 -15 -13z"/>
<path d="M5172 5190 c-189 -27 -339 -129 -411 -279 -35 -75 -36 -78 -36 -201
0 -121 1 -127 34 -198 41 -86 106 -152 187 -188 31 -13 144 -47 252 -75 108
-28 213 -60 234 -70 107 -55 105 -179 -5 -236 -39 -20 -141 -19 -222 2 -78 20
-208 82 -268 128 -26 21 -51 37 -55 37 -9 0 -154 -164 -190 -215 -29 -41 -24
-53 51 -121 85 -78 212 -137 364 -169 91 -19 282 -19 358 0 170 43 317 160
391 309 38 78 39 82 39 190 0 94 -4 119 -23 160 -44 97 -125 172 -258 239 -29
15 -136 47 -239 72 -220 53 -259 70 -275 120 -25 76 28 145 126 165 103 22
207 -3 339 -81 69 -40 125 -59 125 -43 0 5 40 59 89 119 72 89 87 113 79 128
-13 25 -121 103 -190 138 -92 46 -190 69 -318 74 -63 2 -143 0 -178 -5z"/>
<path d="M7635 5177 c-46 -21 -104 -87 -116 -132 -30 -109 80 -235 191 -220
156 21 246 143 188 255 -34 66 -90 101 -169 106 -41 3 -75 0 -94 -9z m144 -52
c48 -25 81 -72 81 -116 0 -40 -23 -99 -39 -99 -4 0 -16 15 -26 33 -17 32 -17
35 -1 60 10 14 16 36 14 49 -3 22 -8 23 -87 26 l-83 3 7 -88 c4 -48 12 -94 17
-100 21 -26 -20 -13 -51 16 -28 26 -31 35 -31 88 1 65 8 79 64 117 44 29 92
34 135 11z m-38 -101 c6 -18 4 -20 -17 -16 -23 4 -31 21 -17 36 11 10 25 2 34
-20z m3 -89 c26 -40 21 -65 -13 -65 -37 0 -42 8 -34 53 7 43 24 47 47 12z"/>
<path d="M6288 5173 c-38 -3 -52 -10 -73 -34 l-25 -30 3 -729 2 -728 25 -27
25 -26 400 3 400 3 79 28 c105 37 156 68 213 131 132 144 175 332 107 473 -29
61 -76 99 -158 129 -34 12 -62 28 -63 35 -2 8 15 27 37 42 48 34 105 128 125
205 51 195 -34 366 -230 463 -127 63 -176 69 -520 67 -165 -1 -321 -3 -347 -5z
m661 -358 c49 -29 73 -67 78 -122 4 -39 0 -55 -19 -83 -13 -19 -35 -41 -50
-47 -15 -8 -95 -15 -202 -19 l-176 -7 0 141 c0 77 -2 146 -5 154 -4 11 26 12
167 8 149 -4 178 -8 207 -25z m6 -596 c22 -6 56 -28 77 -49 35 -35 38 -42 38
-95 0 -53 -3 -60 -37 -95 -50 -49 -103 -60 -298 -60 l-155 0 0 155 0 155 168
0 c92 0 185 -5 207 -11z"/>
<path d="M3318 5163 c-14 -2 -38 -16 -52 -30 l-26 -26 0 -732 0 -733 28 -24
29 -24 534 -1 c454 -2 537 0 557 13 21 14 22 20 22 174 l0 160 -394 0 -394 0
-6 44 c-4 24 -6 284 -4 578 3 600 6 576 -69 597 -36 10 -169 12 -225 4z"/>
<path d="M6896 3374 c-8 -20 -8 -192 0 -221 4 -16 14 -23 30 -23 22 0 24 4 24
45 0 25 3 45 6 45 3 0 26 -22 51 -50 47 -53 73 -63 73 -30 0 21 -41 93 -60
105 -12 7 10 54 34 74 9 8 16 24 16 37 0 34 -33 31 -55 -3 -10 -16 -27 -38
-38 -51 -24 -26 -37 -15 -37 35 0 37 -33 65 -44 37z"/>
<path d="M3624 3370 c-28 -11 -82 -75 -90 -105 -13 -54 58 -145 114 -145 39 0
93 35 85 56 -5 13 -15 15 -51 11 -38 -4 -49 -1 -69 19 -29 29 -29 53 -2 83 19
20 29 22 65 17 30 -4 45 -1 54 9 16 19 5 34 -36 51 -38 16 -41 16 -70 4z"/>
<path d="M3844 3344 c-8 -20 -33 -75 -55 -122 -30 -65 -36 -88 -27 -94 24 -15
48 -8 57 16 11 26 30 36 71 36 22 0 30 -6 39 -30 8 -23 16 -30 37 -30 25 0 26
2 21 40 -7 51 -75 198 -98 211 -26 14 -29 12 -45 -27z m48 -89 c13 -28 6 -40
-17 -32 -17 7 -21 57 -5 57 6 0 16 -11 22 -25z"/>
<path d="M4994 3338 c10 -61 68 -199 89 -212 22 -13 25 -9 79 113 44 96 46
116 17 132 -28 14 -33 7 -54 -73 -10 -38 -21 -68 -25 -68 -9 0 -36 59 -44 98
-7 30 -30 52 -57 52 -8 0 -10 -12 -5 -42z"/>
<path d="M7240 3255 l0 -125 25 0 c23 0 24 3 27 68 l3 67 53 -67 c65 -82 88
-88 97 -25 3 23 5 76 3 117 -3 73 -4 75 -30 78 -26 3 -27 2 -30 -53 l-3 -56
-61 60 c-34 34 -67 61 -73 61 -7 0 -11 -39 -11 -125z"/>
<path d="M7561 3360 c-59 -37 -72 -59 -68 -113 4 -51 30 -87 80 -113 23 -13
36 -13 82 -2 l55 13 0 56 c0 47 -3 57 -19 62 -51 13 -94 -19 -54 -41 23 -14 9
-42 -22 -42 -56 0 -84 71 -45 118 16 19 27 22 72 20 40 -2 53 0 55 12 4 19
-24 37 -68 45 -25 4 -43 0 -68 -15z"/>
<path d="M3345 3358 c-71 -39 -97 -97 -71 -158 21 -50 48 -72 100 -77 43 -5
48 -3 85 34 65 64 66 120 6 180 -35 35 -80 43 -120 21z m84 -61 c6 -8 14 -27
17 -44 5 -25 1 -34 -21 -52 -15 -11 -36 -21 -46 -21 -20 0 -59 45 -59 69 0 46
81 81 109 48z"/>
<path d="M4030 3245 l0 -125 84 0 c76 0 85 2 91 20 10 32 -3 40 -61 40 l-54 0
0 95 0 95 -30 0 -30 0 0 -125z"/>
<path d="M4366 3349 c-40 -31 -37 -83 7 -109 17 -11 40 -20 50 -20 22 0 34
-29 17 -40 -7 -4 -30 -2 -51 5 -42 15 -49 12 -49 -22 0 -27 32 -43 83 -43 42
0 87 41 87 78 0 38 -10 49 -55 64 -30 10 -41 19 -43 37 -4 23 -2 24 42 18 40
-6 46 -4 46 11 0 29 -21 42 -66 42 -27 0 -51 -7 -68 -21z"/>
<path d="M4555 3358 c-3 -7 -3 -47 -1 -88 2 -41 4 -91 5 -110 l1 -35 80 0 c81
-1 81 0 78 25 -3 24 -6 25 -56 22 -51 -4 -54 -3 -50 20 2 18 11 24 38 28 27 4
35 10 35 25 0 16 -8 21 -37 23 -32 3 -38 7 -38 27 0 22 5 24 53 27 45 3 52 6
55 26 3 21 1 22 -78 22 -55 0 -82 -4 -85 -12z"/>
<path d="M4770 3245 l0 -125 25 0 c23 0 25 4 25 40 0 58 34 52 73 -12 12 -19
26 -28 42 -28 30 0 31 2 4 50 l-21 38 22 30 c27 36 23 66 -14 105 -22 24 -32
27 -91 27 l-65 0 0 -125z m125 45 c0 -21 -5 -26 -32 -28 -31 -3 -33 -1 -33 28
0 29 2 31 33 28 27 -2 32 -7 32 -28z"/>
<path d="M5244 3334 c-4 -20 -4 -75 -1 -121 5 -80 13 -102 40 -103 4 0 7 59 7
130 0 122 -1 130 -20 130 -14 0 -21 -9 -26 -36z"/>
<path d="M5389 3347 c-51 -34 -64 -63 -50 -114 15 -56 54 -100 99 -113 30 -8
44 -6 79 11 71 35 50 65 -37 53 -43 -6 -49 -4 -68 21 -26 33 -27 53 -6 83 17
24 53 29 83 10 15 -9 23 -9 35 1 23 19 20 29 -16 51 -43 26 -77 25 -119 -3z"/>
<path d="M5598 3358 c-2 -7 -2 -64 0 -126 l4 -113 72 3 c65 3 71 5 74 26 3 20
0 22 -48 22 -43 0 -51 3 -46 16 3 9 6 19 6 24 0 5 15 10 33 12 24 2 32 8 32
23 0 16 -8 21 -37 23 -33 3 -38 7 -38 28 0 22 4 24 50 24 38 0 52 4 59 19 9
16 6 19 -27 25 -63 10 -130 7 -134 -6z"/>
<path d="M5825 3345 c-44 -43 -22 -105 44 -120 16 -3 35 -13 41 -21 17 -19 -9
-28 -61 -20 -30 5 -41 3 -45 -9 -10 -24 12 -42 58 -48 52 -7 95 14 104 50 9
35 -4 53 -59 83 -25 14 -50 29 -54 33 -14 14 19 25 58 20 31 -5 40 -2 45 12
18 46 -89 63 -131 20z"/>
<path d="M6104 3348 c3 -13 6 -68 6 -123 l0 -100 67 3 c38 1 78 8 90 14 31 15
47 65 30 92 -9 12 -11 29 -7 41 9 24 -13 70 -39 85 -11 5 -50 10 -87 10 -64 0
-66 -1 -60 -22z m124 -40 c22 -22 13 -38 -22 -38 -32 0 -46 13 -46 41 0 13 54
11 68 -3z m0 -105 c3 -20 -1 -23 -27 -23 -27 0 -31 4 -31 26 0 22 4 25 28 22
19 -2 28 -9 30 -25z"/>
<path d="M6389 3338 c-45 -35 -65 -74 -55 -113 17 -66 108 -121 161 -97 35 16
79 87 79 129 0 29 -8 43 -42 74 -52 49 -85 51 -143 7z m92 -28 c10 -6 26 -24
34 -40 15 -29 14 -31 -9 -55 -31 -31 -81 -34 -96 -6 -18 34 -12 68 16 90 31
24 30 24 55 11z"/>
<path d="M6675 3351 c-49 -30 -68 -58 -67 -97 2 -50 30 -91 80 -115 37 -18 47
-19 73 -9 35 15 77 62 86 98 8 34 -31 108 -68 128 -38 19 -68 18 -104 -5z
m104 -67 c27 -34 26 -36 -5 -73 -32 -38 -57 -39 -89 -5 -30 33 -32 57 -5 84
29 29 74 26 99 -6z"/>
<path d="M7137 3364 c-4 -4 -7 -58 -7 -121 l0 -113 30 0 31 0 -3 118 c-3 109
-4 117 -23 120 -12 2 -24 0 -28 -4z"/>
<path d="M3080 3240 l0 -120 85 0 85 0 0 30 c0 28 -1 29 -57 32 l-58 3 3 65
c4 88 -2 110 -33 110 l-25 0 0 -120z"/>
<path d="M4415 2840 c-94 -11 -158 -44 -125 -65 6 -3 10 -2 10 4 0 6 7 7 17 4
11 -4 14 -3 9 5 -7 11 11 17 42 13 6 -1 12 3 12 8 0 6 23 13 50 17 28 4 50 10
50 15 0 5 -1 8 -2 8 -2 -1 -30 -5 -63 -9z"/>
<path d="M6120 2830 c-13 -9 -13 -10 0 -9 8 1 26 5 40 9 l25 8 -25 1 c-14 0
-32 -4 -40 -9z"/>
<path d="M6140 2729 c-30 -5 -26 -7 23 -8 31 0 57 1 57 3 0 8 -47 11 -80 5z"/>
<path d="M4373 2723 c15 -2 37 -2 50 0 12 2 0 4 -28 4 -27 0 -38 -2 -22 -4z"/>
</g>
</svg>
